<svg xmlns="http://www.w3.org/2000/svg" xmlns:xlink="http://www.w3.org/1999/xlink" width="20px" height="20px" viewBox="0 0 20 20" version="1.1">
    <title>Twitter_icon</title>
    <g stroke="none" stroke-width="1" fill="none" fill-rule="evenodd">
        <g id="index" transform="translate(-1135.000000, -80.000000)">
            <g id="Twitter_icon" transform="translate(1135.000000, 80.000000)">
                <circle id="椭圆形" fill="#1A1E29" cx="10" cy="10" r="10"/>
                <path d="M10.0018248,0 C15.5256801,0 20.0036496,4.4771525 20.0036496,10 C20.0036496,15.5228475 15.5256801,20 10.0018248,20 C4.4779695,20 0,15.5228475 0,10 C0,4.4771525 4.4779695,0 10.0018248,0 Z M13.0022482,5 C11.5252722,5 10.337476,6.13276505 10.337476,7.5226274 C10.337476,7.71819838 10.362711,7.91369719 10.4032622,8.10134285 C8.19208446,7.99266157 6.22036588,6.99246194 4.90861734,5.46064167 C4.67765451,5.83511523 4.54529473,6.26529439 4.54529473,6.73461903 C4.54529473,7.60952912 5.01567864,8.38233631 5.73309093,8.8357021 C5.29642562,8.8198034 4.88336968,8.70248727 4.52847989,8.51561129 L4.52847989,8.54673524 C4.52847989,9.77219866 5.44397463,10.7883692 6.66543861,11.0230255 C6.4428451,11.0773481 6.20346214,11.10846 5.96407917,11.10846 C5.79123169,11.10846 5.62599154,11.0932468 5.46157688,11.0693506 C5.79966451,12.0696104 6.78168204,12.7960444 7.95267609,12.8199405 C7.03638125,13.4992796 5.88987286,13.8976374 4.64397401,13.8976374 C4.42140589,13.8976374 4.21487792,13.8904216 4.00072993,13.867235 C5.1808934,14.5856835 6.58285029,15 8.09341788,15 C12.9938027,15 15.6753643,11.1563245 15.6753643,7.82101083 C15.6753643,7.71093451 15.6753643,7.6023254 15.667668,7.49222502 C16.1862487,7.13297671 16.639843,6.68683871 17.0031022,6.18708765 C16.5243362,6.3826466 16.0049556,6.52313731 15.4680362,6.57744789 C16.0210846,6.26529439 16.4416844,5.77352876 16.639843,5.18759756 C16.1281587,5.47656444 15.5506881,5.68734863 14.9487445,5.79671539 C14.4622824,5.30418009 13.7693685,5 13.0022482,5 Z" id="形状结合" fill="#FFFFFF" fill-rule="nonzero"/>
            </g>
        </g>
    </g>
</svg>