<svg xmlns="http://www.w3.org/2000/svg" xmlns:xlink="http://www.w3.org/1999/xlink" width="20px" height="20px" viewBox="0 0 20 20" version="1.1">
    <title>medium_icon</title>
    <g stroke="none" stroke-width="1" fill="none" fill-rule="evenodd">
        <g id="index" transform="translate(-1067.000000, -80.000000)">
            <g id="medium_icon" transform="translate(1067.000000, 80.000000)">
                <circle id="椭圆形" fill="#1A1E29" cx="10" cy="10" r="10"/>
                <path d="M10.0018248,0 C15.5256801,0 20.0036496,4.4771525 20.0036496,10 C20.0036496,15.5228475 15.5256801,20 10.0018248,20 C4.4779695,20 0,15.5228475 0,10 C0,4.4771525 4.4779695,0 10.0018248,0 Z M4.27031036,5.05767013 C4.18435718,5.06535948 4.11793881,5.09611688 4.07105526,5.14994233 C4.0241717,5.20376779 4.00072993,5.27681661 4.00072993,5.36908881 L4.00072993,5.36908881 L4.00072993,12.8777394 C4.00072993,12.9853903 4.03198563,13.0891965 4.09449703,13.189158 C4.15700844,13.2891196 4.23905466,13.3621684 4.34063569,13.4083045 L4.34063569,13.4083045 L7.44667113,14.9538639 C7.51699646,14.9846213 7.59122876,15 7.66936801,15 C7.77876297,14.9923106 7.86080919,14.9519415 7.91550667,14.8788928 C7.97020415,14.8058439 7.99755289,14.715494 7.99755289,14.6078431 L7.99755289,14.6078431 L7.99755289,6.86851211 C7.99755289,6.86082276 7.99364593,6.84928874 7.985832,6.83391004 L7.985832,6.83391004 L4.55161168,5.14994233 C4.42658887,5.08842753 4.33282177,5.05767013 4.27031036,5.05767013 Z M16.0029197,7.65282584 L12.3928861,13.4429066 L15.34655,14.8961938 C15.448131,14.9577086 15.5516655,14.9846213 15.6571535,14.976932 C15.7626415,14.9692426 15.8466412,14.9327181 15.9091526,14.8673588 C15.971664,14.8019993 16.0029197,14.715494 16.0029197,14.6078431 L16.0029197,14.6078431 L16.0029197,7.65282584 Z M8.43122576,7.53748559 L8.43122576,11.4936563 L12.0060967,13.2468281 L8.43122576,7.53748559 Z M12.1584683,5 C12.0021898,5 11.8888879,5.06535948 11.8185625,5.19607844 L11.8185625,5.19607844 L9.63847728,8.66782008 L12.2639563,12.8316033 C12.4514905,12.5163399 13.1176277,11.4455979 14.2623678,9.61937716 L14.4024792,9.39581531 C15.4538117,7.71799508 15.9794779,6.87171601 15.9794779,6.85697809 C15.9794779,6.84159939 15.971664,6.83006536 15.9560362,6.82237601 L15.9560362,6.82237601 L12.3342816,5.0461361 C12.2873981,5.0153787 12.2287936,5 12.1584683,5 Z" id="形状结合" fill="#FFFFFF" fill-rule="nonzero"/>
            </g>
        </g>
    </g>
</svg>