<svg xmlns="http://www.w3.org/2000/svg" xmlns:xlink="http://www.w3.org/1999/xlink" width="20px" height="20px" viewBox="0 0 20 20" version="1.1">
    <title>Discord_icon</title>
    <g stroke="none" stroke-width="1" fill="none" fill-rule="evenodd">
        <g id="index" transform="translate(-1033.000000, -80.000000)">
            <g id="编组-22" transform="translate(1033.000000, 80.000000)">
                <circle id="椭圆形" fill="#1A1E29" cx="10" cy="10" r="10"/>
                <g id="icon_discord" fill="#FFFFFF" fill-rule="nonzero">
                    <path d="M10,0 C4.47708333,0 0,4.47708333 0,10 C0,15.5229167 4.47708333,20 10,20 C15.5229167,20 20,15.5229167 20,10 C20,4.47708333 15.5229167,0 10,0 Z M16.3333333,12.8381944 C15.0476852,14.4956019 13.1523148,14.3717593 13.1523148,14.3717593 L12.5046296,13.5525463 C13.6474537,13.3143519 14.3712963,12.2953704 14.3712963,12.2953704 C14.3712963,12.2953704 12.6569444,13.4668981 10.1902778,13.4668981 C7.72361111,13.4668981 6.00925926,12.2953704 6.00925926,12.2953704 C6.00925926,12.2953704 6.73310185,13.3050926 7.87592593,13.5525463 L7.22824074,14.3717593 C7.22824074,14.3717593 5.32337963,14.4953704 4.04722222,12.8381944 C4.04722222,12.8381944 3.94236111,10.000463 5.51365741,6.72407407 C5.51365741,6.72407407 6.91388889,5.65740741 8.45671296,5.6287037 L8.60925926,5.78101852 C8.60925926,5.78101852 6.97106481,6.26666667 6.02824074,7.10486111 C6.02824074,7.10486111 7.74259259,6.05717593 10.1900463,6.05717593 C12.5594907,6.05717593 14.250463,7.03912037 14.3391204,7.10162037 C13.4048611,6.26550926 11.7613426,5.78101852 11.7613426,5.78101852 L11.9136574,5.6287037 C13.4564815,5.65740741 14.8564815,6.72407407 14.8564815,6.72407407 C16.437963,10.0094907 16.3333333,12.8381944 16.3333333,12.8381944 L16.3333333,12.8381944 Z" id="形状"/>
                    <path d="M8.30486111,9.51458333 C7.70509259,9.51458333 7.24768519,10.0381944 7.24768519,10.6761574 C7.24768519,11.3048611 7.72407407,11.8381944 8.30486111,11.8381944 C8.89560185,11.8381944 9.37152778,11.3048611 9.37152778,10.6761574 C9.38101852,10.0381944 8.89513889,9.51458333 8.30486111,9.51458333 L8.30486111,9.51458333 Z M12.1143519,9.51458333 C11.5145833,9.51458333 11.0571759,10.0381944 11.0571759,10.6761574 C11.0571759,11.3048611 11.5333333,11.8381944 12.1143519,11.8381944 C12.7048611,11.8381944 13.1810185,11.3048611 13.1810185,10.6761574 C13.1810185,10.0381944 12.7046296,9.51458333 12.1143519,9.51458333 L12.1143519,9.51458333 Z" id="形状"/>
                </g>
            </g>
        </g>
    </g>
</svg>