<svg xmlns="http://www.w3.org/2000/svg" xmlns:xlink="http://www.w3.org/1999/xlink" width="20px" height="20px" viewBox="0 0 20 20" version="1.1">
    <title>telegram_icon</title>
    <g stroke="none" stroke-width="1" fill="none" fill-rule="evenodd">
        <g id="index" transform="translate(-1101.000000, -80.000000)">
            <g id="telegram_icon" transform="translate(1101.000000, 80.000000)">
                <circle id="椭圆形" fill="#1A1E29" cx="10" cy="10" r="10"/>
                <path d="M10.0018248,0 C15.5256801,0 20.0036496,4.4771525 20.0036496,10 C20.0036496,15.5228475 15.5256801,20 10.0018248,20 C4.4779695,20 0,15.5228475 0,10 C0,4.4771525 4.4779695,0 10.0018248,0 Z M15.3105329,5.93731604 C15.5010183,5.19881117 15.0334633,4.85532054 14.5485917,5.07858945 L14.5485917,5.07858945 L3.91604844,9.14895346 C3.18874092,9.4409205 3.18874092,9.83593474 3.77751368,10.00768 L3.77751368,10.00768 L6.51357529,10.8664066 L12.834224,6.91626435 C13.1286103,6.7273445 13.4056798,6.83039169 13.1805609,7.03648606 L13.1805609,7.03648606 L8.05477457,11.6049115 L7.86428926,14.4043601 C8.14135879,14.4043601 8.26257671,14.2841385 8.41842832,14.1295676 L8.41842832,14.1295676 L9.75182544,12.8414777 L12.5052039,14.8680725 C13.0247093,15.1600395 13.3883631,15.0054687 13.5095809,14.4043601 L13.5095809,14.4043601 Z" id="形状结合" fill="#FFFFFF" fill-rule="nonzero"/>
            </g>
        </g>
    </g>
</svg>